<?xml version="1.0" standalone="no"?><!DOCTYPE svg PUBLIC "-//W3C//DTD SVG 1.1//EN" "http://www.w3.org/Graphics/SVG/1.1/DTD/svg11.dtd"><svg t="1531530463153" class="icon" style="" viewBox="0 0 1024 1024" version="1.1" xmlns="http://www.w3.org/2000/svg" p-id="2389" xmlns:xlink="http://www.w3.org/1999/xlink" width="200" height="200"><defs><style type="text/css"></style></defs><path d="M492.143767 694.993754c7.515161 7.710612 21.355377 7.710612 28.870538 0l244.350171-251.246231c10.17371-10.461259 1.51347-26.383904-14.434757-26.383904l-156.627247 0L594.302471 188.8266c0-7.93574-6.491855-14.388708-14.474666-14.388708L433.330266 174.437891c-7.982812 0-14.473643 6.452969-14.473643 14.388708L418.856623 417.363619l-156.62827 0c-15.947204 0-24.608467 15.921621-14.434757 26.383904L492.143767 694.993754z" p-id="2390"></path><path d="M570.20975 788.499381l-309.416072 0c-9.625218 0-17.383926 6.456039-17.383926 14.46341l0 36.864606c0 7.972579 7.758708 14.46341 17.383926 14.46341l309.416072 0c9.582239 0 17.382902-6.490831 17.382902-14.46341l0-36.864606C587.593675 794.95542 579.791989 788.499381 570.20975 788.499381z" p-id="2391"></path><path d="M898.476145 661.866263l-120.92 121.091916c-2.515287 2.515287-6.593162 2.515287-9.109472 0l-79.036078-78.854952c-2.538823-2.515287-2.538823-6.616698 0-9.131985l20.188808-20.212344c2.515287-2.515287 6.594185-2.515287 9.109472 0l54.29151 54.110385 102.760408-102.96507c0.281409-0.281409 0.582261-0.531096 0.898463-0.74906-25.808806-31.381731-64.937988-51.394531-108.74061-51.394531-77.719082 0-140.721998 63.003939-140.721998 140.721998 0 77.719082 63.002916 140.721998 140.721998 140.721998 77.718059 0 140.721998-63.003939 140.721998-140.721998C908.643716 695.879937 905.033491 678.120458 898.476145 661.866263z" p-id="2392"></path></svg>