<?xml version="1.0" standalone="no"?><!DOCTYPE svg PUBLIC "-//W3C//DTD SVG 1.1//EN" "http://www.w3.org/Graphics/SVG/1.1/DTD/svg11.dtd"><svg t="1531530777153" class="icon" style="" viewBox="0 0 1024 1024" version="1.1" xmlns="http://www.w3.org/2000/svg" p-id="3024" xmlns:xlink="http://www.w3.org/1999/xlink" width="200" height="200"><defs><style type="text/css"></style></defs><path d="M579.948043 92.797499c0-15.897062-12.08627-28.839839-26.998911-28.839839l-81.09804 0c-14.963807 0-26.994818 12.942777-26.994818 28.839839l0 144.378272 135.091768 0L579.948043 92.797499 579.948043 92.797499 579.948043 92.797499zM512.400624 757.340731l175.528736-195.642842-1.469468-1.701758c2.87856-8.859785 1.297552-19.25146-5.196349-26.403347-6.381337-7.212262-15.645328-8.970302-23.720238-5.734608l-1.524726-1.701758-76.071559 0L579.94702 323.815013 444.856275 323.815013l0 202.285123-76.125795 0-1.52575 1.704828c-8.018627-3.235694-17.337877-1.423419-23.775496 5.788843-6.385431 7.150864-8.079002 17.543561-5.083785 26.403347l-1.581008 1.701758L512.400624 757.340731 512.400624 757.340731 512.400624 757.340731zM931.224502 439.293071l-53.988612 0c-14.908548 0-27.051099 12.942777-27.051099 28.839839l0 375.448998L174.676833 843.581907 174.676833 468.131887c0-15.897062-12.08627-28.839839-27.051099-28.839839l-54.048987 0c-14.907525 0-27.050076 12.942777-27.050076 28.839839l0 462.031958c0 15.953344 12.08627 28.895097 27.050076 28.895097l41.287335 0 0.224104 0L916.711973 959.058942l0.279363 0 14.232143 0c14.968923 0 27.110451-12.941753 27.110451-28.895097L958.33393 468.131887C958.390211 452.235848 946.193425 439.293071 931.224502 439.293071L931.224502 439.293071 931.224502 439.293071zM931.224502 439.293071" p-id="3025"></path></svg>