<?xml version="1.0" standalone="no"?><!DOCTYPE svg PUBLIC "-//W3C//DTD SVG 1.1//EN" "http://www.w3.org/Graphics/SVG/1.1/DTD/svg11.dtd"><svg t="1509933072499" class="icon" style="" viewBox="0 0 1024 1024" version="1.1" xmlns="http://www.w3.org/2000/svg" p-id="1066" xmlns:xlink="http://www.w3.org/1999/xlink" width="200" height="200"><defs><style type="text/css"></style></defs><path d="M829.25568 420.57728c-13.98784-146.0224-135.55712-260.56704-285.24544-260.56704-115.8144 0-214.9376 68.73088-260.66944 167.36256-13.76256-4.34176-28.09856-7.35232-43.29472-7.35232-79.52384 0-143.99488 64.512-143.99488 143.99488 0 15.81056 3.1744 30.76096 7.86432 44.93312-61.8496 36.06528-103.87456 102.23616-103.87456 179.01568 0 114.87232 93.12256 207.99488 207.99488 207.99488l0 0.06144 575.95904-0.06144c132.56704 0 240.00512-107.4176 240.00512-240.00512 0-116.98176-83.8656-214.17984-194.74432-235.35616zM783.99488 831.93856l0 0.06144-575.95904 0c-79.40096-0.06144-143.99488-64.63488-143.99488-144.05632 0-51.2 26.97216-97.44384 72.13056-123.74016 43.86816-25.1904 46.87872-30.16704 28.48768-75.42784-3.11296-9.3184-4.608-17.408-4.608-24.73984 0-44.1344 35.88096-79.99488 79.99488-79.99488 0 0 20.992-1.49504 43.29472 7.35232 36.70016 14.62272 40.71424 0.63488 58.04032-37.08928 36.70016-79.13472 116.224-130.29376 202.62912-130.29376 115.2 0 210.432 87.1424 221.57312 202.69056 3.93216 45.83424 3.93216 45.83424 51.67104 56.7296 82.75968 15.81056 142.7456 88.39168 142.7456 172.50304 0 97.05472-78.9504 176.00512-176.00512 176.00512z" p-id="1067" fill="#515151"></path></svg>